<svg width="150" height="150" viewBox="0 0 150 150" fill="none" xmlns="http://www.w3.org/2000/svg">
<path d="M84.9433 75L112.775 47.168C114.096 45.8494 114.839 44.0601 114.841 42.1937C114.843 40.3273 114.103 38.5367 112.784 37.2158C111.466 35.8949 109.676 35.1519 107.81 35.1503C105.944 35.1486 104.153 35.8885 102.832 37.207L75 65.0391L47.168 37.207C45.8471 35.8861 44.0555 35.1441 42.1875 35.1441C40.3195 35.1441 38.5279 35.8861 37.207 37.207C35.8861 38.5279 35.144 40.3195 35.144 42.1875C35.144 44.0555 35.8861 45.8471 37.207 47.168L65.039 75L37.207 102.832C35.8861 104.153 35.144 105.944 35.144 107.812C35.144 109.681 35.8861 111.472 37.207 112.793C38.5279 114.114 40.3195 114.856 42.1875 114.856C44.0555 114.856 45.8471 114.114 47.168 112.793L75 84.9609L102.832 112.793C104.153 114.114 105.944 114.856 107.812 114.856C109.681 114.856 111.472 114.114 112.793 112.793C114.114 111.472 114.856 109.681 114.856 107.812C114.856 105.944 114.114 104.153 112.793 102.832L84.9433 75Z" fill="#6320EE"/>
</svg>
