<svg width="138" height="63" viewBox="0 0 138 63" fill="none" xmlns="http://www.w3.org/2000/svg">
<path d="M0.89001 61L19.505 30.91L0.63501 1.50001H13.13L26.475 22.24L38.715 1.50001H50.955L32.34 31.42L51.38 61H38.885L25.37 40.005L13.13 61H0.89001Z" fill="white"/>
<path d="M107.944 62.02C101.994 62.02 96.7809 60.7167 92.3042 58.11C87.8842 55.5033 84.3992 51.905 81.8492 47.315C79.3559 42.6683 78.1092 37.3133 78.1092 31.25C78.1092 25.1867 79.3559 19.86 81.8492 15.27C84.3992 10.6233 87.8842 6.99668 92.3042 4.39001C96.7809 1.78334 101.994 0.480011 107.944 0.480011C113.838 0.480011 119.023 1.78334 123.499 4.39001C127.976 6.99668 131.461 10.6233 133.954 15.27C136.448 19.86 137.694 25.1867 137.694 31.25C137.694 37.3133 136.448 42.6683 133.954 47.315C131.461 51.905 127.976 55.5033 123.499 58.11C119.023 60.7167 113.838 62.02 107.944 62.02ZM107.944 52.245C113.611 52.245 118.116 50.375 121.459 46.635C124.859 42.895 126.559 37.7667 126.559 31.25C126.559 24.7333 124.859 19.605 121.459 15.865C118.116 12.125 113.611 10.255 107.944 10.255C102.278 10.255 97.7442 12.125 94.3442 15.865C90.9442 19.605 89.2442 24.7333 89.2442 31.25C89.2442 37.7667 90.9442 42.895 94.3442 46.635C97.7442 50.375 102.278 52.245 107.944 52.245Z" fill="white"/>
</svg>
